# xmcd
#
# Track frame offsets: 
#        182
#        17215
#        33105
#        50735
#        64165
#        77917
#        91982
#        101895
#        115960
#        125237
#        143167
#        153955
#        166725
#
# Disc length: 2491 seconds
#
# Revision: 7
# Processed by: cddbd v1.5.2PL0 Copyright (c) Steve Scherf et al.
# Submitted via: ExactAudioCopyFreeDBPlugin 1.0
#
DISCID=af09b90d
DTITLE=Howlin' Wolf - The London Howlin' Wolf Sessions (US CHD-9297)
DYEAR=1971
DGENRE=Blues
TTITLE0=Rockin' Daddy
TTITLE1=I Ain't Superstitious
TTITLE2=Sittin' On Top Of The World
TTITLE3=Worried About My Baby
TTITLE4=What A Woman!
TTITLE5=Poor Boy
TTITLE6=Built For Comfort
TTITLE7=Who's Been Talking?
TTITLE8=The Red Rooster (False Start And Dialogue)
TTITLE9=The Red Rooster
TTITLE10=Do The Do
TTITLE11=Highway 49
TTITLE12=Wang Dang Doodle
EXTD=With Eric Clapton, Steve Winwood, Bill Wyman,  \nand Charlie Watt
EXTD=s
EXTT0=
EXTT1=
EXTT2=
EXTT3=
EXTT4=
EXTT5=
EXTT6=
EXTT7=
EXTT8=
EXTT9=
EXTT10=
EXTT11=
EXTT12=
PLAYORDER=
